<svg height="8px" width="8px" id="Camada_1" data-name="Camada 1" xmlns="http://www.w3.org/2000/svg" xmlns:xlink="http://www.w3.org/1999/xlink" viewBox="0 0 8 8"><defs><style>.cls-1{fill:url(#Gradiente_sem_nome_60);}.cls-2{fill:url(#Gradiente_sem_nome_153);}.cls-3{fill:url(#Gradiente_sem_nome_185);}.cls-4{fill:url(#Gradiente_sem_nome_225);}.cls-5{fill:url(#Gradiente_sem_nome_88);}</style><linearGradient id="Gradiente_sem_nome_60" x1="1.8793" y1="0.6994" x2="5.824" y2="7.5319" gradientUnits="userSpaceOnUse"><stop offset="0" stop-color="#636abf"/><stop offset="1" stop-color="#3f47b0"/></linearGradient><linearGradient id="Gradiente_sem_nome_153" x1="2.9655" y1="4.0598" x2="4.9973" y2="7.5789" gradientUnits="userSpaceOnUse"><stop offset="0" stop-color="#fff"/><stop offset="1" stop-color="#d9d9d9"/></linearGradient><linearGradient id="Gradiente_sem_nome_185" x1="3.0021" y1="0.4214" x2="5.0346" y2="3.9416" gradientUnits="userSpaceOnUse"><stop offset="0" stop-color="#fff"/><stop offset="1" stop-color="#d4d4d4"/></linearGradient><linearGradient id="Gradiente_sem_nome_225" x1="3.3917" y1="5.6965" x2="4.6083" y2="7.8035" gradientUnits="userSpaceOnUse"><stop offset="0" stop-color="#69d18f"/><stop offset="1" stop-color="#51c97d"/></linearGradient><linearGradient id="Gradiente_sem_nome_88" x1="4.5308" y1="1.3123" x2="5.4692" y2="2.9377" gradientUnits="userSpaceOnUse"><stop offset="0" stop-color="#393d72"/><stop offset="1" stop-color="#282c66"/></linearGradient></defs><path class="cls-1" d="M6,1V2H2V1H1.49A.49.49,0,0,0,1,1.49V6.6519A.348.348,0,0,0,1.348,7H6.652A.348.348,0,0,0,7,6.6519V2Z"/><path class="cls-2" d="M2.2774,4.5H5.7226A.2774.2774,0,0,1,6,4.7774V7A0,0,0,0,1,6,7H2A0,0,0,0,1,2,7V4.7774A.2774.2774,0,0,1,2.2774,4.5Z"/><path class="cls-3" d="M2,1H6A0,0,0,0,1,6,1V3.226a.274.274,0,0,1-.274.274H2.274A.274.274,0,0,1,2,3.226V1A0,0,0,0,1,2,1Z"/><rect class="cls-4" x="2" y="6.5" width="4" height="0.5"/><rect class="cls-5" x="4.5" y="1.25" width="1" height="1.75" rx="0.1896"/></svg>